<?xml version="1.0" encoding="UTF-8"?>
<!-- Generator: Adobe Illustrator 22.1.0, SVG Export Plug-In . SVG Version: 6.00 Build 0)  -->
<svg version="1.1" id="Capa_1" xmlns="http://www.w3.org/2000/svg" xmlns:xlink="http://www.w3.org/1999/xlink" x="0px" y="0px" viewBox="0 0 351.3 77.2" style="enable-background:new 0 0 351.3 77.2;" xml:space="preserve">
<style type="text/css">
	.st0{fill-rule:evenodd;clip-rule:evenodd;fill:#CE3728;}
	.st1{fill-rule:evenodd;clip-rule:evenodd;}
</style>
<g>
	<g>
		<g>
			<path d="M226.1,10.7c0.2-0.6,0.3-0.7,0.4-0.7c0.2,0,0.2,0.2,0.4,0.6c0.3,0.7,3.1,7.7,4.2,10.2c0.6,1.5,1.1,1.7,1.5,1.8     c0.3,0.1,0.5,0.1,0.7,0.1c0.1,0,0.2,0,0.2,0.1s-0.2,0.1-0.4,0.1c-0.3,0-1.5,0-2.8,0c-0.3,0-0.6,0-0.6-0.1c0-0.1,0-0.1,0.1-0.1     c0.1,0,0.3-0.2,0.2-0.5l-1.6-3.9c0-0.1-0.1-0.1-0.2-0.1h-4c-0.1,0-0.1,0-0.2,0.1l-1,2.7c-0.2,0.4-0.3,0.8-0.3,1.1     c0,0.3,0.3,0.5,0.6,0.5h0.2c0.1,0,0.2,0.1,0.2,0.1c0,0.1-0.1,0.1-0.3,0.1c-0.4,0-1.4-0.1-1.6-0.1c-0.2,0-1,0.1-1.8,0.1     c-0.2,0-0.3,0-0.3-0.1c0-0.1,0.1-0.1,0.2-0.1c0.1,0,0.4,0,0.5,0c0.8-0.1,1.1-0.7,1.5-1.5L226.1,10.7z M228,17.7     c0.1,0,0.1,0,0.1-0.1l-1.7-4.6c-0.1-0.3-0.2-0.3-0.3,0l-1.6,4.6c0,0.1,0,0.1,0.1,0.1H228z"/>
			<path d="M234.4,22.9c-0.2-0.1-0.3-0.2-0.3-0.6c0-0.8,0.1-1.5,0.1-1.8c0-0.2,0-0.3,0.1-0.3c0.1,0,0.2,0.1,0.2,0.2s0,0.4,0.1,0.6     c0.3,1.2,1.6,1.7,2.8,1.7c1.7,0,2.6-1,2.6-2.2c0-1.2-0.7-1.8-2.2-2.9l-0.8-0.6c-1.9-1.4-2.5-2.4-2.5-3.6c0-2,1.6-3.2,3.9-3.2     c0.7,0,1.4,0.1,1.8,0.2c0.3,0.1,0.5,0.1,0.6,0.1c0.1,0,0.2,0,0.2,0.1c0,0.1-0.1,0.6-0.1,1.8c0,0.3,0,0.4-0.1,0.4     c-0.1,0-0.1-0.1-0.2-0.2c0-0.2-0.2-0.7-0.3-0.8c-0.1-0.2-0.7-0.8-2.3-0.8c-1.3,0-2.3,0.6-2.3,1.8c0,1.1,0.5,1.7,2.3,2.9l0.5,0.3     c2.1,1.4,2.9,2.6,2.9,4.1c0,1-0.4,2.1-1.6,2.9c-0.7,0.5-1.8,0.6-2.8,0.6C236.1,23.3,235.1,23.2,234.4,22.9z"/>
			<path d="M251.1,10.1c3.9,0,6.9,2.4,6.9,6.3c0,3.8-2.8,6.9-7,6.9c-4.8,0-6.8-3.6-6.8-6.6C244.2,14,246.3,10.1,251.1,10.1z      M251.5,22.6c1.6,0,4.7-0.8,4.7-5.7c0-4-2.5-6.2-5.2-6.2c-2.9,0-5,1.8-5,5.5C246,20.2,248.3,22.6,251.5,22.6z"/>
			<path d="M262.2,21.5c-1.7-1.5-2.1-3.4-2.1-5c0-1.1,0.4-3.1,2-4.6c1-1,2.6-1.8,5.3-1.8c0.7,0,1.7,0.1,2.5,0.2     c0.7,0.1,1.2,0.2,1.8,0.3c0.2,0,0.2,0.1,0.2,0.2c0,0.1,0,0.3-0.1,1c0,0.6,0,1.5,0,1.7c0,0.3-0.1,0.4-0.2,0.4     c-0.1,0-0.1-0.1-0.1-0.4c0-0.7-0.3-1.3-0.7-1.7c-0.6-0.5-1.9-0.9-3.4-0.9c-2.2,0-3.3,0.6-3.9,1.2c-1.3,1.2-1.6,2.7-1.6,4.4     c0,3.2,2.6,6.1,6.3,6.1c1.3,0,2.2-0.1,2.9-0.8c0.4-0.4,0.6-1.1,0.7-1.4c0-0.2,0.1-0.2,0.2-0.2c0.1,0,0.2,0.1,0.2,0.2     c0,0.1-0.2,1.6-0.4,2.2c-0.1,0.3-0.1,0.4-0.4,0.5c-0.7,0.3-2,0.4-3.1,0.4C265.3,23.3,263.6,22.7,262.2,21.5z"/>
			<path d="M277.6,18.2c0,1.6,0,3,0.1,3.6c0.1,0.5,0.1,0.8,0.6,0.9c0.3,0,0.6,0.1,0.8,0.1c0.1,0,0.1,0.1,0.1,0.1     c0,0.1-0.1,0.1-0.3,0.1c-1,0-2.1-0.1-2.2-0.1c-0.1,0-1.2,0.1-1.7,0.1c-0.2,0-0.3,0-0.3-0.1c0-0.1,0-0.1,0.1-0.1     c0.2,0,0.4,0,0.5-0.1c0.3-0.1,0.4-0.4,0.5-0.9c0.1-0.7,0.1-2,0.1-3.6v-3c0-2.6,0-3.1,0-3.6c0-0.6-0.2-0.8-0.6-0.9     c-0.2,0-0.4-0.1-0.5-0.1c-0.1,0-0.1-0.1-0.1-0.1c0-0.1,0.1-0.1,0.3-0.1c0.6,0,1.7,0,1.8,0c0.1,0,1.2,0,1.7,0c0.2,0,0.3,0,0.3,0.1     c0,0.1-0.1,0.1-0.1,0.1c-0.1,0-0.2,0-0.4,0c-0.5,0.1-0.6,0.3-0.6,0.9c0,0.5,0,1,0,3.6V18.2z"/>
			<path d="M286.2,10.7c0.2-0.6,0.3-0.7,0.4-0.7c0.2,0,0.2,0.2,0.4,0.6c0.3,0.7,3.1,7.7,4.2,10.2c0.6,1.5,1.1,1.7,1.5,1.8     c0.3,0.1,0.5,0.1,0.7,0.1c0.1,0,0.2,0,0.2,0.1s-0.2,0.1-0.4,0.1c-0.3,0-1.5,0-2.8,0c-0.3,0-0.6,0-0.6-0.1c0-0.1,0-0.1,0.1-0.1     c0.1,0,0.3-0.2,0.2-0.5l-1.6-3.9c0-0.1-0.1-0.1-0.2-0.1h-4c-0.1,0-0.1,0-0.2,0.1l-1,2.7c-0.2,0.4-0.3,0.8-0.3,1.1     c0,0.3,0.3,0.5,0.6,0.5h0.2c0.1,0,0.2,0.1,0.2,0.1c0,0.1-0.1,0.1-0.3,0.1c-0.4,0-1.4-0.1-1.6-0.1c-0.2,0-1,0.1-1.8,0.1     c-0.2,0-0.3,0-0.3-0.1c0-0.1,0.1-0.1,0.2-0.1c0.1,0,0.4,0,0.5,0c0.8-0.1,1.1-0.7,1.5-1.5L286.2,10.7z M288.2,17.7     c0.1,0,0.1,0,0.1-0.1l-1.7-4.6c-0.1-0.3-0.2-0.3-0.3,0l-1.6,4.6c0,0.1,0,0.1,0.1,0.1H288.2z"/>
			<path d="M296,21.5c-1.7-1.5-2.1-3.4-2.1-5c0-1.1,0.4-3.1,2-4.6c1-1,2.6-1.8,5.3-1.8c0.7,0,1.7,0.1,2.5,0.2     c0.7,0.1,1.2,0.2,1.8,0.3c0.2,0,0.2,0.1,0.2,0.2c0,0.1,0,0.3-0.1,1c0,0.6,0,1.5,0,1.7c0,0.3-0.1,0.4-0.2,0.4     c-0.1,0-0.1-0.1-0.1-0.4c0-0.7-0.3-1.3-0.7-1.7c-0.6-0.5-1.9-0.9-3.4-0.9c-2.2,0-3.3,0.6-3.9,1.2c-1.3,1.2-1.6,2.7-1.6,4.4     c0,3.2,2.6,6.1,6.3,6.1c1.3,0,2.2-0.1,2.9-0.8c0.4-0.4,0.6-1.1,0.7-1.4c0-0.2,0.1-0.2,0.2-0.2c0.1,0,0.2,0.1,0.2,0.2     c0,0.1-0.2,1.6-0.4,2.2c-0.1,0.3-0.1,0.4-0.4,0.5c-0.7,0.3-2,0.4-3.1,0.4C299.1,23.3,297.4,22.7,296,21.5z"/>
			<path d="M311.8,18.2c0,1.6,0,3,0.1,3.6c0.1,0.5,0.1,0.8,0.6,0.9c0.3,0,0.6,0.1,0.8,0.1c0.1,0,0.1,0.1,0.1,0.1     c0,0.1-0.1,0.1-0.3,0.1c-1,0-2.1-0.1-2.2-0.1c-0.1,0-1.2,0.1-1.7,0.1c-0.2,0-0.3,0-0.3-0.1c0-0.1,0-0.1,0.1-0.1     c0.2,0,0.4,0,0.5-0.1c0.3-0.1,0.4-0.4,0.5-0.9c0.1-0.7,0.1-2,0.1-3.6v-3c0-2.6,0-3.1,0-3.6c0-0.6-0.2-0.8-0.6-0.9     c-0.2,0-0.4-0.1-0.5-0.1c-0.1,0-0.1-0.1-0.1-0.1c0-0.1,0.1-0.1,0.3-0.1c0.6,0,1.7,0,1.8,0c0.1,0,1.2,0,1.7,0c0.2,0,0.3,0,0.3,0.1     c0,0.1-0.1,0.1-0.1,0.1c-0.1,0-0.2,0-0.4,0c-0.5,0.1-0.6,0.3-0.6,0.9c0,0.5,0,1,0,3.6V18.2z"/>
			<path d="M323,10.1c3.9,0,6.9,2.4,6.9,6.3c0,3.8-2.8,6.9-7,6.9c-4.8,0-6.8-3.6-6.8-6.6C316.1,14,318.2,10.1,323,10.1z M323.4,22.6     c1.6,0,4.7-0.8,4.7-5.7c0-4-2.5-6.2-5.2-6.2c-2.9,0-5,1.8-5,5.5C317.9,20.2,320.3,22.6,323.4,22.6z M326.1,7.7     c0.1,0.2,0,0.2-0.1,0.2c-0.1,0-0.3,0-0.6,0c-1,0.1-2.4,0.6-3,0.8c-0.1,0.1-0.3,0.1-0.3,0.1c0,0-0.1,0-0.1-0.1     c0-0.1,0-0.1,0.1-0.2c0.7-0.5,2.6-1.6,2.7-1.7c0.3-0.2,0.5-0.3,0.6-0.3c0.1,0,0.1,0,0.2,0.2C325.7,7,325.8,7.3,326.1,7.7z"/>
			<path d="M334.7,20.8c0,1.4,0.2,1.8,0.7,1.9c0.3,0.1,0.7,0.1,0.9,0.1c0.1,0,0.1,0.1,0.1,0.1c0,0.1-0.1,0.1-0.3,0.1     c-1,0-1.7-0.1-1.8-0.1s-0.9,0.1-1.7,0.1c-0.2,0-0.3,0-0.3-0.1c0-0.1,0.1-0.1,0.1-0.1c0.1,0,0.5,0,0.7-0.1     c0.4-0.1,0.5-0.6,0.5-2.1V11c0-0.7,0.1-0.9,0.2-0.9c0.2,0,0.5,0.3,0.7,0.5c0.3,0.3,2.8,3,5.5,5.7c1.7,1.8,3.6,3.8,4.1,4.3     l-0.2-8.4c0-1.1-0.1-1.5-0.7-1.6c-0.3-0.1-0.7-0.1-0.9-0.1c-0.1,0-0.1-0.1-0.1-0.2c0-0.1,0.1-0.1,0.3-0.1c0.8,0,1.6,0,1.8,0     s0.8,0,1.5,0c0.2,0,0.3,0,0.3,0.1c0,0.1-0.1,0.2-0.2,0.2c-0.1,0-0.2,0-0.4,0c-0.6,0.1-0.6,0.5-0.6,1.5l0,9.9c0,1.1,0,1.2-0.1,1.2     c-0.2,0-0.4-0.1-1.3-1c-0.2-0.2-2.7-2.6-4.5-4.6c-2-2.1-4-4.2-4.5-4.8L334.7,20.8z"/>
		</g>
		<g>
			<path d="M224.2,35.5c0-3.3,0-3.8,0-4.5c0-0.7-0.2-1.1-0.9-1.2c-0.2,0-0.5,0-0.7,0c-0.1,0-0.2-0.1-0.2-0.2c0-0.1,0.1-0.2,0.3-0.2     c1,0,2.3,0.1,2.5,0.1c0.5,0,2.1-0.1,3.1-0.1c2.8,0,3.8,0.9,4.1,1.2c0.5,0.4,1.1,1.4,1.1,2.5c0,3-2.3,5-5.6,5c-0.1,0-0.5,0-0.6,0     c-0.1,0-0.2-0.1-0.2-0.2c0-0.2,0.1-0.2,0.6-0.2c2.3,0,4-1.5,4-3.4c0-0.7-0.1-2-1.2-3.2c-1.1-1.1-2.4-1-2.9-1     c-0.4,0-1,0.1-1.2,0.1c-0.1,0-0.2,0.2-0.2,0.4v8.5c0,2,0,3.7,0.1,4.5c0.1,0.6,0.2,1,0.9,1.1c0.3,0,0.8,0.1,1,0.1     c0.1,0,0.2,0.1,0.2,0.2c0,0.1-0.1,0.2-0.3,0.2c-1.2,0-2.6-0.1-2.7-0.1c-0.1,0-1.5,0.1-2.1,0.1c-0.2,0-0.3,0-0.3-0.2     c0-0.1,0-0.2,0.2-0.2c0.2,0,0.5,0,0.7-0.1c0.4-0.1,0.5-0.5,0.6-1.1c0.1-0.9,0.1-2.5,0.1-4.5V35.5z"/>
			<path d="M239.7,35.5c0-3.3,0-3.8,0-4.5c0-0.7-0.2-1.1-0.9-1.2c-0.2,0-0.5,0-0.7,0c-0.1,0-0.2-0.1-0.2-0.2c0-0.1,0.1-0.2,0.3-0.2     c1,0,2.4,0.1,2.5,0.1c0.1,0,4.7,0,5.2,0c0.4,0,0.8-0.1,1-0.1c0.1,0,0.2-0.1,0.3-0.1c0.1,0,0.1,0.1,0.1,0.2c0,0.1-0.1,0.4-0.2,1     c0,0.2-0.1,1.1-0.1,1.4c0,0.1-0.1,0.2-0.2,0.2c-0.1,0-0.2-0.1-0.2-0.3c0-0.1,0-0.5-0.1-0.7c-0.1-0.3-0.4-0.5-1.6-0.6     c-0.4,0-2.9-0.1-3.1-0.1c-0.1,0-0.1,0.1-0.1,0.2v5.7c0,0.1,0,0.2,0.1,0.2c0.3,0,3.1,0,3.6,0c0.5,0,0.8-0.1,1.1-0.3     c0.1-0.1,0.2-0.3,0.3-0.3c0.1,0,0.1,0,0.1,0.2c0,0.1-0.1,0.5-0.2,1.2c0,0.4-0.1,1.2-0.1,1.4c0,0.2,0,0.4-0.2,0.4     c-0.1,0-0.1-0.1-0.1-0.2c0-0.2,0-0.4-0.1-0.7c-0.1-0.3-0.3-0.5-1.1-0.6c-0.6-0.1-2.9-0.1-3.3-0.1c-0.1,0-0.1,0.1-0.1,0.1v1.8     c0,0.7,0,3.2,0,3.6c0,1.4,0.4,1.7,2.6,1.7c0.6,0,1.6,0,2.2-0.2c0.6-0.2,0.9-0.6,1-1.5c0-0.2,0.1-0.3,0.2-0.3     c0.1,0,0.1,0.2,0.1,0.3c0,0.1-0.2,1.6-0.3,2c-0.1,0.5-0.4,0.5-1.2,0.5c-1.6,0-2.9,0-3.8-0.1c-0.9,0-1.5,0-1.8,0c0,0-0.5,0-0.9,0     c-0.4,0-0.9,0-1.3,0c-0.2,0-0.3,0-0.3-0.2c0-0.1,0-0.2,0.2-0.2c0.2,0,0.5-0.1,0.7-0.1c0.4-0.1,0.5-0.5,0.6-1.1     c0.1-0.9,0.1-2.5,0.1-4.5V35.5z"/>
			<path d="M254.7,35.5c0-3.3,0-3.8,0-4.5c0-0.7-0.2-1.1-0.9-1.2c-0.2,0-0.5,0-0.7,0c-0.1,0-0.2-0.1-0.2-0.2c0-0.1,0.1-0.2,0.3-0.2     c1,0,2.4,0.1,2.6,0.1c0.2,0,2-0.1,2.7-0.1c1.4,0,2.9,0.1,4,0.9c0.5,0.4,1.5,1.4,1.5,2.9c0,1.6-0.6,3.1-2.7,4.8     c1.8,2.2,3.3,4.1,4.5,5.4c1.2,1.2,1.9,1.4,2.4,1.5c0.4,0.1,0.6,0.1,0.8,0.1c0.1,0,0.2,0.1,0.2,0.2c0,0.1-0.1,0.2-0.5,0.2h-1.4     c-1.2,0-1.8-0.1-2.3-0.4c-0.9-0.5-1.7-1.5-3-3.1c-0.9-1.1-1.9-2.5-2.3-3.1c-0.1-0.1-0.1-0.1-0.3-0.1l-2.8,0c-0.1,0-0.1,0-0.1,0.2     v0.5c0,2,0,3.7,0.1,4.5c0.1,0.6,0.2,1,0.9,1.1c0.3,0,0.8,0.1,1,0.1c0.1,0,0.2,0.1,0.2,0.2c0,0.1-0.1,0.2-0.3,0.2     c-1.2,0-2.6-0.1-2.7-0.1c0,0-1.5,0.1-2.1,0.1c-0.2,0-0.3,0-0.3-0.2c0-0.1,0-0.2,0.2-0.2c0.2,0,0.5,0,0.7-0.1     c0.4-0.1,0.5-0.5,0.6-1.1c0.1-0.9,0.1-2.5,0.1-4.5V35.5z M256.5,37.3c0,0.1,0,0.2,0.1,0.3c0.3,0.2,1.4,0.3,2.4,0.3     c0.5,0,1.1,0,1.6-0.4c0.7-0.5,1.3-1.6,1.3-3.2c0-2.6-1.4-4.1-3.8-4.1c-0.6,0-1.3,0.1-1.6,0.1c-0.1,0-0.2,0.1-0.2,0.2V37.3z"/>
			<path d="M271.5,35.5c0-3.3,0-3.8,0-4.5c0-0.7-0.2-1.1-0.9-1.2c-0.2,0-0.5,0-0.7,0c-0.1,0-0.2-0.1-0.2-0.2c0-0.1,0.1-0.2,0.3-0.2     c1,0,2.3,0.1,2.5,0.1c0.2,0,1.6-0.1,2.2-0.1c0.2,0,0.4,0.1,0.4,0.2c0,0.1-0.1,0.2-0.2,0.2c-0.1,0-0.3,0-0.5,0     c-0.6,0.1-0.7,0.5-0.7,1.2c0,0.7,0,1.3,0,4.5v2.9c0,3,0.7,4.3,1.6,5.1c1.1,1,2,1.1,3.2,1.1c1.3,0,2.6-0.6,3.4-1.5     c1-1.2,1.2-2.9,1.2-5.1v-2.6c0-3.3,0-3.8,0-4.5c0-0.7-0.1-1.1-0.9-1.2c-0.2,0-0.5,0-0.7,0c-0.1,0-0.2-0.1-0.2-0.2     c0-0.1,0.1-0.2,0.3-0.2c1,0,2.2,0.1,2.3,0.1c0.1,0,1.2-0.1,1.8-0.1c0.2,0,0.3,0.1,0.3,0.2c0,0.1-0.1,0.2-0.2,0.2     c-0.1,0-0.3,0-0.5,0c-0.6,0.1-0.7,0.5-0.8,1.2c0,0.7,0,1.3,0,4.5v2.2c0,2.3-0.3,4.8-2,6.3c-1.6,1.4-3.3,1.5-4.5,1.5     c-0.7,0-3,0-4.5-1.5c-1.1-1-1.9-2.4-1.9-5.5V35.5z"/>
			<path d="M295.2,29.8c0.3-0.7,0.4-0.8,0.5-0.8c0.2,0,0.3,0.3,0.5,0.8c0.4,0.9,3.9,9.5,5.2,12.7c0.8,1.9,1.4,2.1,1.9,2.3     c0.3,0.1,0.6,0.1,0.9,0.1c0.1,0,0.3,0,0.3,0.2c0,0.1-0.2,0.2-0.5,0.2c-0.3,0-1.9,0-3.4,0c-0.4,0-0.8,0-0.8-0.1     c0-0.1,0-0.1,0.1-0.1c0.1,0,0.3-0.2,0.2-0.6l-1.9-4.8c0-0.1-0.1-0.1-0.2-0.1h-5c-0.1,0-0.2,0-0.2,0.2l-1.2,3.4     c-0.2,0.5-0.3,1-0.3,1.4c0,0.4,0.4,0.6,0.7,0.6h0.2c0.2,0,0.2,0.1,0.2,0.2c0,0.1-0.1,0.2-0.3,0.2c-0.5,0-1.7-0.1-1.9-0.1     c-0.2,0-1.3,0.1-2.2,0.1c-0.3,0-0.4,0-0.4-0.2c0-0.1,0.1-0.2,0.2-0.2c0.1,0,0.5,0,0.6,0c1-0.1,1.4-0.9,1.8-1.9L295.2,29.8z      M297.6,38.6c0.1,0,0.1,0,0.1-0.1l-2.1-5.7c-0.1-0.3-0.2-0.3-0.4,0l-2,5.7c0,0.1,0,0.1,0.1,0.1H297.6z"/>
			<path d="M309.9,42.4c0,1.7,0.2,2.2,0.8,2.4c0.4,0.1,0.9,0.1,1.1,0.1c0.1,0,0.2,0.1,0.2,0.2c0,0.1-0.1,0.2-0.4,0.2     c-1.2,0-2.1-0.1-2.3-0.1c-0.2,0-1.1,0.1-2.1,0.1c-0.2,0-0.3,0-0.3-0.2c0-0.1,0.1-0.2,0.2-0.2c0.2,0,0.6,0,0.9-0.1     c0.5-0.1,0.6-0.7,0.6-2.6v-12c0-0.8,0.1-1.1,0.3-1.1c0.2,0,0.6,0.4,0.8,0.6c0.3,0.3,3.5,3.7,6.9,7.2c2.1,2.2,4.5,4.7,5.1,5.4     l-0.2-10.5c0-1.4-0.1-1.8-0.8-1.9c-0.4-0.1-0.9-0.1-1.1-0.1c-0.1,0-0.2-0.1-0.2-0.2c0-0.1,0.2-0.1,0.4-0.1c1,0,2,0.1,2.3,0.1     c0.2,0,1-0.1,1.9-0.1c0.2,0,0.4,0,0.4,0.1c0,0.1-0.1,0.2-0.2,0.2c-0.1,0-0.3,0-0.5,0c-0.7,0.1-0.8,0.6-0.8,1.8l0,12.3     c0,1.4,0,1.5-0.2,1.5c-0.2,0-0.4-0.2-1.7-1.3c-0.2-0.2-3.4-3.3-5.7-5.7c-2.5-2.6-5-5.2-5.6-5.9L309.9,42.4z"/>
			<path d="M337.3,29.1c4.9,0,8.6,3,8.6,7.9c0,4.7-3.5,8.6-8.7,8.6c-5.9,0-8.5-4.5-8.5-8.2C328.7,33.9,331.3,29.1,337.3,29.1z      M337.8,44.7c1.9,0,5.9-1,5.9-7.1c0-5-3.1-7.7-6.5-7.7c-3.6,0-6.2,2.3-6.2,6.8C331,41.6,333.9,44.7,337.8,44.7z"/>
		</g>
		<g>
			<path d="M226,62.1c0,3,0,4.2-0.6,5.5c-0.5,0.9-1.4,1.8-3.2,2.8c-0.3,0.2-0.6,0.4-0.8,0.5c0,0-0.1,0-0.2,0c-0.1,0-0.2,0-0.2-0.1     c0-0.1,0.1-0.2,0.3-0.3c0.3-0.1,0.6-0.4,0.8-0.5c1.4-1.2,2.1-2.2,2.1-7v-5.4c0-2.9,0-3.4,0-4c0-0.6-0.2-0.9-0.9-1.1     c-0.2,0-0.5-0.1-0.7-0.1c-0.1,0-0.2,0-0.2-0.1c0-0.1,0.1-0.1,0.3-0.1c1,0,2.3,0.1,2.4,0.1s1.5-0.1,2.1-0.1c0.2,0,0.3,0,0.3,0.1     c0,0.1-0.1,0.1-0.2,0.1c-0.2,0-0.3,0-0.5,0.1c-0.6,0.1-0.8,0.4-0.8,1.1c0,0.6,0,1.1,0,4V62.1z"/>
			<path d="M237.5,52.6c0.3-0.7,0.3-0.8,0.5-0.8c0.1,0,0.2,0.1,0.5,0.8c0.3,0.8,3.7,9.8,5,13c0.8,1.9,1.4,2.3,1.9,2.4     c0.3,0.1,0.6,0.1,0.9,0.1c0.1,0,0.2,0,0.2,0.1c0,0.1-0.2,0.2-0.4,0.2c-0.3,0-1.9,0-3.4,0c-0.4,0-0.6,0-0.6-0.2     c0-0.1,0.1-0.1,0.2-0.2c0.1,0,0.3-0.2,0.1-0.6l-2-5.3c0-0.1-0.1-0.1-0.2-0.1h-4.6c-0.1,0-0.2,0.1-0.2,0.2l-1.3,3.8     c-0.2,0.5-0.3,1.1-0.3,1.4c0,0.4,0.5,0.6,0.8,0.6h0.2c0.2,0,0.2,0,0.2,0.1c0,0.1-0.1,0.2-0.3,0.2c-0.5,0-1.4-0.1-1.7-0.1     c-0.2,0-1.4,0.1-2.4,0.1c-0.3,0-0.4,0-0.4-0.2c0-0.1,0.1-0.1,0.2-0.1c0.2,0,0.5,0,0.6,0c1-0.1,1.4-1,1.8-2L237.5,52.6z      M239.7,61.3c0.1,0,0.1-0.1,0.1-0.2l-2.1-5.8c-0.1-0.3-0.2-0.3-0.3,0l-1.9,5.8c0,0.1,0,0.2,0.1,0.2H239.7z"/>
			<path d="M250.7,58.3c0-3.4,0-4,0-4.7c0-0.7-0.2-1.1-0.9-1.2c-0.2,0-0.5-0.1-0.7-0.1c-0.1,0-0.2,0-0.2-0.1c0-0.1,0.1-0.2,0.3-0.2     c1,0,2.3,0.1,2.4,0.1c0.5,0,1.7-0.1,2.7-0.1c2.7,0,3.7,0.9,4,1.2c0.5,0.5,1.1,1.4,1.1,2.6c0,3.1-2.2,5.1-5.3,5.1     c-0.1,0-0.3,0-0.5,0c-0.1,0-0.2,0-0.2-0.2c0-0.2,0.1-0.2,0.6-0.2c2.1,0,3.7-1.5,3.7-3.5c0-0.7-0.1-2.2-1.2-3.3     c-1.1-1.2-2.5-1.1-3-1.1c-0.4,0-0.7,0-0.9,0.1c-0.1,0-0.2,0.2-0.2,0.4v8.9c0,2.1,0,3.8,0.1,4.7c0.1,0.6,0.2,1.1,0.8,1.2     c0.3,0,0.8,0.1,1,0.1c0.1,0,0.2,0.1,0.2,0.1c0,0.1-0.1,0.2-0.3,0.2c-1.2,0-2.6-0.1-2.7-0.1c-0.1,0-1.4,0.1-2.1,0.1     c-0.2,0-0.3,0-0.3-0.2c0-0.1,0-0.1,0.2-0.1c0.2,0,0.5,0,0.6-0.1c0.4-0.1,0.5-0.6,0.6-1.2c0.1-0.9,0.1-2.6,0.1-4.7V58.3z"/>
			<path d="M271.9,51.8c4.9,0,8.5,3.1,8.5,8.1c0,4.8-3.4,8.8-8.6,8.8c-5.9,0-8.4-4.6-8.4-8.5C263.4,56.7,265.9,51.8,271.9,51.8z      M272.3,67.9c1.9,0,6-1.1,6-7.4c0-5.2-3.2-8-6.6-8c-3.6,0-6.3,2.4-6.3,7.1C265.4,64.6,268.4,67.9,272.3,67.9z"/>
			<path d="M286.8,65.5c0,1.8,0.3,2.3,0.8,2.5c0.4,0.1,0.9,0.1,1.1,0.1c0.1,0,0.2,0,0.2,0.1c0,0.1-0.1,0.2-0.4,0.2     c-1.2,0-2.1-0.1-2.3-0.1c-0.2,0-1.1,0.1-2.1,0.1c-0.2,0-0.3,0-0.3-0.2c0-0.1,0.1-0.1,0.2-0.1c0.2,0,0.6,0,0.9-0.1     c0.5-0.2,0.6-0.8,0.6-2.7l0-12.4c0-0.8,0.1-1.1,0.2-1.1c0.2,0,0.5,0.5,0.8,0.7c0.3,0.4,3.5,3.8,6.9,7.4c2.1,2.3,4.5,4.9,5.2,5.6     l-0.2-11c0-1.4-0.2-1.9-0.8-2.1c-0.4-0.1-0.9-0.1-1.1-0.1c-0.2,0-0.2-0.1-0.2-0.2c0-0.1,0.2-0.2,0.4-0.2c1,0,2,0.1,2.2,0.1     c0.2,0,1-0.1,1.8-0.1c0.2,0,0.4,0,0.4,0.2c0,0.1-0.1,0.2-0.2,0.2c-0.1,0-0.3,0-0.5,0.1c-0.7,0.2-0.8,0.6-0.8,1.9l0,12.7     c0,1.4,0,1.5-0.2,1.5c-0.2,0-0.4-0.2-1.6-1.4c-0.2-0.2-3.4-3.4-5.6-5.9c-2.5-2.7-5-5.4-5.6-6.2L286.8,65.5z"/>
			<path d="M307.9,58.3c0-3.4,0-4,0-4.7c0-0.7-0.2-1.1-0.9-1.2c-0.2,0-0.5-0.1-0.7-0.1c-0.1,0-0.2,0-0.2-0.1c0-0.1,0.1-0.2,0.3-0.2     c0.5,0,1.1,0,1.6,0l0.9,0c0.2,0,4.5,0,5,0c0.4,0,0.8-0.1,0.9-0.1c0.1,0,0.2-0.1,0.3-0.1c0.1,0,0.1,0.1,0.1,0.2     c0,0.2-0.1,0.4-0.2,1c0,0.2-0.1,1.2-0.1,1.4c0,0.1-0.1,0.2-0.2,0.2c-0.1,0-0.2-0.1-0.2-0.3c0-0.2,0-0.5-0.1-0.8     c-0.2-0.3-0.4-0.6-1.5-0.7c-0.4,0-2.7-0.1-3-0.1c-0.1,0-0.1,0.1-0.1,0.2v6c0,0.2,0,0.2,0.1,0.2c0.3,0,2.9,0,3.4,0     c0.5,0,0.8-0.1,1-0.3c0.2-0.2,0.2-0.3,0.3-0.3c0.1,0,0.1,0,0.1,0.2c0,0.1-0.1,0.5-0.2,1.2c0,0.4-0.1,1.2-0.1,1.4     c0,0.2,0,0.4-0.2,0.4c-0.1,0-0.2-0.1-0.2-0.2c0-0.2,0-0.4-0.1-0.7c-0.1-0.3-0.3-0.7-1.1-0.8c-0.6-0.1-2.7-0.1-3.1-0.1     c-0.1,0-0.2,0.1-0.2,0.2v1.9c0,0.7,0,3.2,0,3.7c0.1,1.5,0.4,1.8,2.5,1.8c0.6,0,1.5,0,2.1-0.2c0.6-0.2,0.8-0.7,1-1.6     c0-0.2,0.1-0.3,0.2-0.3c0.1,0,0.1,0.2,0.1,0.3c0,0.2-0.2,1.6-0.3,2.1c-0.2,0.6-0.3,0.6-1.2,0.6c-1.6,0-2.8,0-3.7-0.1     c-0.8,0-1.4-0.1-1.7-0.1c0,0-0.4,0-0.9,0c-0.4,0-0.9,0-1.3,0c-0.2,0-0.3,0-0.3-0.2c0-0.1,0-0.1,0.2-0.1c0.2,0,0.5,0,0.6-0.1     c0.4-0.1,0.5-0.6,0.6-1.2c0.1-0.9,0.1-2.6,0.1-4.7V58.3z"/>
			<path d="M320.9,68.1c-0.3-0.2-0.3-0.2-0.3-0.8c0-1.1,0.1-1.9,0.1-2.3c0-0.2,0.1-0.3,0.2-0.3c0.1,0,0.2,0.1,0.2,0.2     c0,0.2,0,0.5,0.1,0.8c0.3,1.6,1.8,2.2,3.2,2.2c2.1,0,3.1-1.5,3.1-2.9c0-1.5-0.6-2.4-2.5-3.9l-1-0.8c-2.3-1.9-2.8-3.2-2.8-4.7     c0-2.3,1.7-3.9,4.5-3.9c0.8,0,1.5,0.1,2,0.2c0.4,0.1,0.6,0.1,0.8,0.1c0.2,0,0.2,0,0.2,0.2c0,0.1-0.1,0.8-0.1,2.3     c0,0.3,0,0.5-0.2,0.5c-0.1,0-0.2-0.1-0.2-0.3c0-0.3-0.2-0.8-0.3-1.1c-0.1-0.2-0.7-1.1-2.7-1.1c-1.5,0-2.7,0.9-2.7,2.5     c0,1.2,0.6,2,2.6,3.6l0.6,0.5c2.6,2,3.2,3.4,3.2,5.1c0,0.9-0.3,2.5-1.8,3.6c-0.9,0.6-2.1,0.9-3.3,0.9     C322.8,68.7,321.8,68.6,320.9,68.1z"/>
			<path d="M338.9,52.6c0.3-0.7,0.3-0.8,0.5-0.8c0.1,0,0.2,0.1,0.5,0.8c0.3,0.8,3.7,9.8,5,13c0.8,1.9,1.4,2.3,1.9,2.4     c0.3,0.1,0.6,0.1,0.9,0.1c0.1,0,0.2,0,0.2,0.1c0,0.1-0.2,0.2-0.4,0.2c-0.3,0-1.9,0-3.4,0c-0.4,0-0.6,0-0.6-0.2     c0-0.1,0.1-0.1,0.2-0.2c0.1,0,0.3-0.2,0.1-0.6l-2-5.3c0-0.1-0.1-0.1-0.2-0.1h-4.6c-0.1,0-0.2,0.1-0.2,0.2l-1.3,3.8     c-0.2,0.5-0.3,1.1-0.3,1.4c0,0.4,0.5,0.6,0.8,0.6h0.2c0.2,0,0.2,0,0.2,0.1c0,0.1-0.1,0.2-0.3,0.2c-0.5,0-1.4-0.1-1.7-0.1     c-0.2,0-1.4,0.1-2.4,0.1c-0.3,0-0.4,0-0.4-0.2c0-0.1,0.1-0.1,0.2-0.1c0.2,0,0.5,0,0.6,0c1-0.1,1.4-1,1.8-2L338.9,52.6z      M341.2,61.3c0.1,0,0.1-0.1,0.1-0.2l-2.1-5.8c-0.1-0.3-0.2-0.3-0.3,0l-1.9,5.8c0,0.1,0,0.2,0.1,0.2H341.2z"/>
		</g>
	</g>
	<g>
		<line x1="199.3" y1="1.3" x2="199.3" y2="76.2"/>
		<rect x="199" y="1.3" width="0.7" height="74.9"/>
	</g>
	<g>
		<path class="st0" d="M8.1,58.4C-2.7,47.6-2.8,29.6,8.4,19.5c3.5-3.2,7.6-5.1,13.2-4.7c4.4,0.3,9.8,1.7,14.1,8.1    c2.6,4.1,2.9,9.4,1.9,13.5c-1.6-6.5-8.1-9.2-13.6-7c-2.3,0.9-4.4,2.9-6.1,5.7c-4.3,6.7-3.3,14.2-1.1,19c4.1,8.7,13.3,11.7,19.3,11    C26.9,68.2,15.7,66,8.1,58.4z"/>
		<path class="st0" d="M47.4,19.1C58.2,29.9,58.3,47.9,47.1,58c-3.5,3.2-7.6,5.1-13.2,4.8c-4.4-0.3-9.9-1.7-14.1-8.2    c-2.6-4.1-3-9.4-1.9-13.5c1.6,6.5,8.1,9.2,13.5,7.1c2.4-1,4.3-2.9,6.2-5.7c4.3-6.7,3.3-14.2,1-19c-4.1-8.6-13.3-11.6-19.3-10.9    C28.6,9.3,39.7,11.4,47.4,19.1z"/>
	</g>
	<g>
		<g>
			<path class="st1" d="M173.9,33.1c0-9.4,0-11,0.1-12.9c0.1-2.1,0.6-3.1,2.2-3.4c0.7-0.1,1-0.1,1.5-0.1c0.2,0,0.4-0.2,0.4-0.4     c0-0.3-0.3-0.5-0.9-0.5c-1.8,0-5.6,0.2-5.9,0.2s-4-0.2-6.8-0.2c-0.6,0-0.9,0.2-0.9,0.5c0,0.2,0.2,0.4,0.4,0.4     c0.6,0,1.6,0,2.1,0.1c1.9,0.5,2.4,1.4,2.5,3.4c0.1,1.9,0.1,3.5,0.1,12.9v17.2c0,15.5-1.8,18.6-5.8,22.5c-0.5,0.6-1.3,1.3-2,1.7     c-0.6,0.3-0.9,0.5-0.9,0.9c0,0.2,0.3,0.3,0.5,0.3c0.1,0,0.3,0,0.4-0.1c0.6-0.3,1.5-0.9,2.3-1.5c4.8-3.3,7.5-6.2,8.7-9.1     c1.8-4.2,1.8-8,1.8-17.7V33.1z"/>
		</g>
		<g>
			<path class="st1" d="M130.5,43.6c0,5.7,0,10.4-0.3,12.9c-0.2,1.7-0.5,3-1.7,3.2c-0.6,0.1-1.3,0.3-1.8,0.3c-0.4,0-0.5,0.1-0.5,0.3     c0,0.4,0.3,0.5,1,0.5c1.7,0,5.6-0.2,5.7-0.2c0.3,0,4.1,0.2,7.4,0.2c0.7,0,1-0.2,1-0.5c0-0.2-0.2-0.3-0.5-0.3     c-0.5,0-1.8-0.2-2.7-0.3c-1.7-0.2-2.1-1.5-2.3-3.2c-0.3-2.5-0.3-7.3-0.3-12.9V19.1c0-0.6,0.1-1,0.5-1.1c0.5-0.3,1.5-0.4,2.5-0.4     c1.4,0,5.1-0.2,8.2,3c3.2,3.1,3.3,7.2,3.3,9.2c0,5.4-4.4,9.7-10.3,9.7c-1.2,0-1.6,0-1.6,0.5c0,0.3,0.4,0.4,0.7,0.4     c0.3,0.1,0.9,0.1,1.2,0.1c8.5,0,14.7-5.8,14.7-14.2c0-3.1-1.7-5.9-3-7.1c-0.9-0.9-3.6-3.4-11.1-3.4c-2.7,0-6.2,0.2-7.5,0.2     c-0.5,0-4.2-0.2-6.8-0.2c-0.7,0-1,0.2-1,0.5c0,0.2,0.3,0.4,0.5,0.4c0.5,0,1.6,0,2,0.1c2,0.5,2.4,1.4,2.6,3.4     c0.1,1.9,0.1,3.5,0.1,12.9V43.6z"/>
		</g>
		<g>
			<path class="st1" d="M97.9,15.9c0.3-0.8,0.5-1,0.7-1c0.4,0,0.6,0.3,1.3,2.1c0.9,2.3,10.3,27,14,36.1c2.1,5.2,3.8,6.2,5.1,6.5     c0.9,0.3,1.8,0.4,2.3,0.4c0.4,0,0.6,0,0.6,0.3c0,0.4-0.5,0.5-1.1,0.5c-0.9,0-5.3,0-9.4-0.1c-1.1-0.1-1.8-0.1-1.8-0.4     c0-0.3,0.2-0.4,0.4-0.5c0.4-0.1,0.7-0.6,0.4-1.5l-5.5-14.7c-0.1-0.2-0.3-0.3-0.6-0.3h-6.4v-2.2h5.7c0.3,0,0.3-0.1,0.2-0.4     l-5.7-16.1c-0.1-0.3-0.2-0.4-0.2-0.6V15.9z M87.8,43.2c-6-0.2-7.5,0.8-11.3,2.7c-0.5,0.3-1.2,0.7-1.6,1.1     c-0.4,0.2-0.6,0.4-0.9,0.4c-0.2,0-0.4-0.2-0.4-0.2c0-0.1,0.1-0.2,0.2-0.2c0.2-0.3,0.9-0.8,1.4-1.2c4.2-2.9,8.3-4.5,13.4-4.6     l8.7-23.9c0.2-0.6,0.4-1,0.6-1.3V24c-0.3-0.2-0.5-0.1-0.7,0.6l-5.3,16.1c-0.1,0.3,0,0.4,0.2,0.4h5.8v2.2h-6.5     c-0.2,0-0.4,0.1-0.5,0.4l-3.6,10.6c-0.5,1.5-0.8,2.9-0.8,4c0,1.1,1.2,1.7,2.2,1.7h0.6c0.4,0,0.6,0.1,0.6,0.3     c0,0.4-0.3,0.5-0.9,0.5c-1.4,0-3.9-0.2-4.7-0.2c-0.6,0-3.9,0.2-6.8,0.2c-0.7,0-1.1-0.1-1.1-0.5c0-0.2,0.2-0.3,0.5-0.3     c0.5,0,1.3-0.1,1.8-0.2c2.7-0.3,3.9-2.6,5-5.5L87.8,43.2z"/>
		</g>
	</g>
</g>
</svg>